<mxfile host="app.diagrams.net" modified="2024-04-18T11:42:43.160Z" agent="Mozilla/5.0 (Macintosh; Intel Mac OS X 10_15_7) AppleWebKit/537.36 (KHTML, like Gecko) Chrome/123.0.0.0 Safari/537.36" version="24.2.5" etag="xVdSA7TzC07ssx0Gei1i" type="github">
  <diagram name="Page-1" id="EZxwiYsQhQOuwy8ME65F">
    <mxGraphModel>
      <root>
        <mxCell id="0" />
        <mxCell id="1" parent="0" />
      </root>
    </mxGraphModel>
  </diagram>
</mxfile>
